<svg width="32" height="32" viewBox="0 0 32 32" fill="none" xmlns="http://www.w3.org/2000/svg">
<path opacity="0.1" fill-rule="evenodd" clip-rule="evenodd" d="M0 16C0 7.16344 7.16344 0 16 0C24.8366 0 32 7.16344 32 16C32 24.8366 24.8366 32 16 32C7.16344 32 0 24.8366 0 16Z" fill="white"/>
<path d="M22.0826 17.165L22.8082 13.5728H18.2694V11.2427C18.2694 10.2597 18.9023 9.30097 20.9352 9.30097H23V6.24272C23 6.24272 21.1269 6 19.337 6C15.5973 6 13.1553 7.72087 13.1553 10.835V13.5728H9V17.165H13.1553V25.8495C13.9895 25.949 14.8429 26 15.7123 26C16.5817 26 17.4352 25.949 18.2694 25.8495V17.165H22.0826Z" fill="white"/>
</svg>
