<svg width="116" height="101" viewBox="0 0 116 101" fill="none" xmlns="http://www.w3.org/2000/svg">
<path d="M25.5705 0.509133C34.0612 0.509133 40.6526 3.74899 45.3448 10.2287C50.2605 16.485 52.7183 24.7522 52.7183 35.0304C52.7183 50.0008 48.6964 62.9602 40.6526 73.9087C32.8323 85.0806 23.4479 94.0182 12.4994 100.721L1.43916 87.6502C16.1861 75.3611 23.6713 63.2954 23.8947 51.4531C18.0853 52.1234 12.6111 50.2242 7.472 45.7554C2.55635 41.0632 0.098527 34.5835 0.098527 26.3163C0.098527 18.4959 2.44463 12.2397 7.13684 7.54745C12.0525 2.85524 18.1971 0.509133 25.5705 0.509133ZM88.1901 0.509133C96.6807 0.509133 103.272 3.74899 107.964 10.2287C112.88 16.485 115.338 24.7522 115.338 35.0304C115.338 50.0008 111.316 62.9602 103.272 73.9087C95.4518 85.0806 86.0674 94.0182 75.1189 100.721L64.0587 87.6502C78.8056 75.3611 86.2908 63.2954 86.5143 51.4531C80.7049 52.1234 75.2306 50.2242 70.0915 45.7554C65.1759 41.0632 62.7181 34.5835 62.7181 26.3163C62.7181 18.4959 65.0642 12.2397 69.7564 7.54745C74.672 2.85524 80.8166 0.509133 88.1901 0.509133Z" fill="#F68A29"/>
</svg>
