<svg width="64" height="64" viewBox="0 0 64 64" fill="none" xmlns="http://www.w3.org/2000/svg">
<rect width="64" height="64" rx="32" fill="#F68A29"/>
<path d="M42.2002 30.6553L40.7496 28.97C40.4722 28.65 40.2482 28.0526 40.2482 27.626V25.8126C40.2482 24.682 39.3202 23.754 38.1896 23.754H36.3762C35.9602 23.754 35.3522 23.53 35.0322 23.2526L33.3469 21.802C32.6109 21.1726 31.4056 21.1726 30.6589 21.802L28.9842 23.2633C28.6642 23.53 28.0562 23.754 27.6402 23.754H25.7949C24.6642 23.754 23.7362 24.682 23.7362 25.8126V27.6366C23.7362 28.0526 23.5122 28.65 23.2456 28.97L21.8056 30.666C21.1869 31.402 21.1869 32.5966 21.8056 33.3326L23.2456 35.0286C23.5122 35.3486 23.7362 35.946 23.7362 36.362V38.186C23.7362 39.3166 24.6642 40.2446 25.7949 40.2446H27.6402C28.0562 40.2446 28.6642 40.4686 28.9842 40.746L30.6696 42.1966C31.4056 42.826 32.6109 42.826 33.3576 42.1966L35.0429 40.746C35.3629 40.4686 35.9602 40.2446 36.3869 40.2446H38.2002C39.3309 40.2446 40.2589 39.3166 40.2589 38.186V36.3726C40.2589 35.9566 40.4829 35.3486 40.7602 35.0286L42.2109 33.3433C42.8296 32.6073 42.8296 31.3913 42.2002 30.6553ZM36.4402 29.9833L31.2882 35.1353C31.1389 35.2846 30.9362 35.37 30.7229 35.37C30.5096 35.37 30.3069 35.2846 30.1576 35.1353L27.5762 32.554C27.2669 32.2446 27.2669 31.7326 27.5762 31.4233C27.8856 31.114 28.3976 31.114 28.7069 31.4233L30.7229 33.4393L35.3096 28.8526C35.6189 28.5433 36.1309 28.5433 36.4402 28.8526C36.7496 29.162 36.7496 29.674 36.4402 29.9833Z" fill="white"/>
</svg>
