<svg width="64" height="64" viewBox="0 0 64 64" fill="none" xmlns="http://www.w3.org/2000/svg">
<rect width="64" height="64" rx="32" fill="#F68A29"/>
<path d="M42.6698 35.1992C42.6698 39.3272 39.3311 42.6659 35.2031 42.6659L36.3231 40.7992" stroke="white" stroke-width="1.6" stroke-linecap="round" stroke-linejoin="round"/>
<path d="M21.3364 28.7992C21.3364 24.6712 24.6751 21.3325 28.8031 21.3325L27.6831 23.1992" stroke="white" stroke-width="1.6" stroke-linecap="round" stroke-linejoin="round"/>
<path d="M42.6698 23.6792V23.7965C42.6698 24.0952 42.4352 24.3299 42.1365 24.3299H32.5365C32.2378 24.3299 32.0032 24.0952 32.0032 23.7965V23.6792C32.0032 21.8019 32.4725 21.3325 34.3712 21.3325H40.3018C42.2005 21.3325 42.6698 21.8019 42.6698 23.6792Z" fill="white"/>
<path d="M32.5365 25.3966C32.2378 25.3966 32.0032 25.6313 32.0032 25.9299V26.9966V28.0526C32.0032 29.9299 32.4725 30.3993 34.3712 30.3993H40.3018C42.2005 30.3993 42.6698 29.9299 42.6698 28.0526V26.9966V25.9299C42.6698 25.6313 42.4352 25.3966 42.1365 25.3966H32.5365Z" fill="white"/>
<path d="M32.0031 35.9459V36.0632C32.0031 36.3619 31.7684 36.5966 31.4698 36.5966H21.8698C21.5711 36.5966 21.3364 36.3619 21.3364 36.0632V35.9459C21.3364 34.0686 21.8058 33.5992 23.7044 33.5992H29.6351C31.5338 33.5992 32.0031 34.0686 32.0031 35.9459Z" fill="white"/>
<path d="M21.8698 37.6633C21.5711 37.6633 21.3364 37.898 21.3364 38.1967V39.2633V40.3193C21.3364 42.1967 21.8058 42.666 23.7044 42.666H29.6351C31.5338 42.666 32.0031 42.1967 32.0031 40.3193V39.2633V38.1967C32.0031 37.898 31.7684 37.6633 31.4698 37.6633H21.8698Z" fill="white"/>
</svg>
