<svg width="64" height="64" viewBox="0 0 64 64" fill="none" xmlns="http://www.w3.org/2000/svg">
<rect width="64" height="64" rx="32" fill="#F68A29"/>
<path d="M23.3738 37.5246C23.1712 37.5246 22.9685 37.4499 22.8085 37.2899C21.3472 35.8179 20.5365 33.8766 20.5365 31.8179C20.5365 27.5406 24.0032 24.0633 28.2698 24.0633L34.7445 24.0846L33.5818 22.9753C33.2618 22.6659 33.2512 22.1646 33.5605 21.8446C33.8698 21.5246 34.3712 21.5139 34.6912 21.8233L37.2938 24.3193C37.5285 24.5433 37.6032 24.8953 37.4858 25.1939C37.3685 25.4926 37.0698 25.6953 36.7392 25.6953L28.2698 25.6739C24.8885 25.6739 22.1365 28.4366 22.1365 31.8286C22.1365 33.4606 22.7765 35.0073 23.9392 36.1699C24.2485 36.4793 24.2485 36.9913 23.9392 37.3006C23.7792 37.4499 23.5765 37.5246 23.3738 37.5246Z" fill="white"/>
<path d="M29.8698 42.3993C29.6671 42.3993 29.4751 42.3246 29.3151 42.1753L26.7124 39.6793C26.4778 39.4553 26.4031 39.1033 26.5204 38.8046C26.6378 38.5059 26.9364 38.3033 27.2671 38.3033L35.7471 38.3246C39.1284 38.3246 41.8804 35.5619 41.8804 32.1699C41.8804 30.5379 41.2404 28.9913 40.0778 27.8286C39.7684 27.5193 39.7684 27.0073 40.0778 26.6979C40.3871 26.3886 40.8991 26.3886 41.2084 26.6979C42.6698 28.1699 43.4804 30.1113 43.4804 32.1699C43.4804 36.4473 40.0138 39.9246 35.7471 39.9246L29.2724 39.9033L30.4351 41.0126C30.7551 41.3219 30.7658 41.8233 30.4564 42.1433C30.2858 42.3139 30.0831 42.3993 29.8698 42.3993Z" fill="white"/>
<path d="M28.8032 35.7325H35.2032C37.2512 35.7325 38.9365 34.0579 38.9365 31.9992C38.9365 29.9512 37.2618 28.2659 35.2032 28.2659H28.8032C26.7552 28.2659 25.0698 29.9405 25.0698 31.9992C25.0698 34.0579 26.7445 35.7325 28.8032 35.7325Z" fill="white"/>
</svg>
